<svg xmlns="http://www.w3.org/2000/svg" viewBox="0 0 400 400"><path fill-rule="evenodd" d="M143.73 14.016c-29.923 6.315-47.619 28.589-50.394 63.429-.733 9.207-.059 12.382 3.604 16.983l3.06 3.843v23.786c0 31.675 2.293 40.301 14.157 53.248l4.651 5.076-.224 7.636-.225 7.637-39.08 18.42c-21.495 10.131-40.655 19.504-42.578 20.83-9.362 6.451-17.677 17.446-21.519 28.454l-2.291 6.564-.22 57.202c-.217 56.599-.203 57.219 1.367 58.789 2.488 2.488 294.412 2.512 296.899.024 2.257-2.256 2.355-109.506.108-117.968l-1.348-5.078 7.651-7.895c9.399-9.697 9.456-10.023 3.738-21.417l-3.913-7.799 10.241-13.647 10.242-13.647 3.562 4.468c15.139 18.992 27.398 18.94 40-.171 11.258-17.073 6.933-28.48-13.362-35.242-19.008-6.334-21.131-5.149-41.841 23.347l-15.534 21.374-4.527-8.792-4.526-8.792 27.691-38.55c33.313-46.377 32.143-44.306 30.237-53.484-1.492-7.186-14.382-22.439-20.736-24.536-9.935-3.279-17.559.348-25.528 12.143-11.697 17.314-7.948 28.796 11.601 35.524l8.092 2.785-20.712 28.478c-24.165 33.223-21.422 29.949-24.206 28.891-1.227-.467-5.591-1.578-9.698-2.47-4.106-.892-7.898-1.851-8.426-2.132-.649-.346 3.104-6.589 11.567-19.24 20.403-30.5 20.526-31.31 7.301-47.981-14.419-18.175-26.028-18.241-39.533-.224-9.912 13.223-6.234 24.039 11.218 32.993 5.444 2.793 10.128 5.31 10.408 5.594.402.406-13.728 22.591-15.984 25.094-.302.335-3.61-.104-7.352-.977-12.943-3.018-12.137-3.384-23.151 10.523-4.423 5.586-8.472 10.625-8.996 11.198-.788.861-1.651.689-4.962-.989l-4.009-2.032v-14.968l4.622-5.045C222.707 162.358 225 153.716 225 122.026V98.208l2.803-3.421c9.878-12.055 1.158-48.062-15.666-64.693-15.294-15.118-42.575-21.53-68.407-16.078m35.736 13.366c19.33 4.464 37.722 24.73 37.722 41.566 0 .2-3.081-1.172-6.846-3.049-26.091-13.008-70.247-12.767-96.71.527-3.201 1.608-5.819 2.752-5.819 2.541 0-2.179 3.076-11.295 5.551-16.446 10.462-21.78 36.978-31.865 66.102-25.139m-2.513 42.992c14.514 1.836 28.807 6.944 36.061 12.889 4.381 3.59 4.73 2.592-5.28 15.1l-8.672 10.837-6.367-2.974c-10.846-5.066-14.732-5.814-30.195-5.814-15.463 0-19.349.748-30.195 5.814l-6.367 2.974-8.672-10.837c-9.996-12.49-9.652-11.525-5.352-15.017 13.31-10.806 40.028-16.134 65.039-12.972m160.064 22.843c9.683 10.305 10.794 13.582 6.7 19.768l-2.638 3.986-9.002-3.024c-13.244-4.45-14.355-6.347-8.751-14.947 6.152-9.443 9.087-10.683 13.691-5.783m-166.278 20.388c6.768.573 15.517 3.772 21.502 7.861 8.06 5.507 10.027 5.181 16.38-2.716l4.085-5.078-.453 15.234c-1.079 36.285-16.042 51.891-49.753 51.891s-48.674-15.606-49.753-51.891l-.453-15.234 4.085 5.078c6.353 7.897 8.32 8.223 16.38 2.716 8.103-5.536 22.531-9.443 31.304-8.476 1.074.119 4.078.395 6.676.615m103.028 3.809c10.33 10.867 11.652 14.418 7.573 20.346l-2.514 3.654-9.492-4.887c-14.069-7.243-14.799-9.364-6.321-18.363 4.837-5.135 6.476-5.25 10.754-.75m90.008 63.089c11.412 3.802 12.196 5.975 5.659 15.673-6.508 9.654-8.786 9.481-17.478-1.326-6.733-8.371-6.686-8.005-1.794-13.94 2.863-3.474 4.28-3.516 13.613-.407m-221.808 11.728c12.899 3.299 40.684 1.75 49.394-2.754l2.389-1.236v8.998l-15.43 23.236c-8.486 12.779-15.605 23.235-15.82 23.235-.215 0-7.334-10.456-15.82-23.235l-15.43-23.236v-8.998l2.389 1.236c1.314.679 5.062 1.919 8.328 2.754m120.732 1.476c28.578 6.385 25.848 4.183 39.631 31.974l8.19 16.513-3.677 3.677-3.677 3.677-2.95-3.477c-8.557-10.086-10.59-11.334-44.055-27.045-15.205-7.138-27.95-13.255-28.322-13.593-.819-.744 11.664-16.37 13.076-16.37.547 0 10.35 2.09 21.784 4.644m-131.46 27.76c4.732 7.081 8.605 13.055 8.605 13.277 0 .222-5.622 3.218-12.493 6.659l-12.493 6.255-8.967-13.437c-4.931-7.39-8.89-13.512-8.796-13.604.173-.169 25.014-11.91 25.355-11.984.101-.021 4.056 5.754 8.789 12.834m88.893-4.561 8.023 3.797-9.007 13.478-9.006 13.477-12.493-6.255c-6.871-3.441-12.493-6.437-12.493-6.659 0-.222 3.864-6.183 8.586-13.248l8.586-12.844 4.891 2.229a1262.69 1262.69 0 0 1 12.913 6.025m-136.982 49.5c6.013 18.754 21.485 33.572 39.993 38.306 9.146 2.339 69.568 2.339 78.714 0 18.508-4.734 33.98-19.552 39.993-38.306 1.063-3.314 1.483-8.171 1.834-21.245l.457-16.948 8.984 4.241 8.984 4.241.2 69.153.199 69.152H62.492l.199-69.152.2-69.153 8.984-4.241 8.984-4.241.457 16.948c.351 13.074.771 17.931 1.834 21.245m25.29-4.883c2.739 2.169 6.274 1.049 22.8-7.221l16.383-8.198 4.8 7.221c5.672 8.535 6.376 9.175 10.077 9.175 3.701 0 4.405-.64 10.077-9.175l4.8-7.221 16.383 8.198c22.269 11.144 20.61 11.355 30.837-3.911l6.803-10.157-.509 8.204c-1.04 16.74-6.286 27.586-17.341 35.856-11.403 8.528-14.507 9.07-51.831 9.043l-30.86-.023-6.25-2.107c-19.96-6.729-30.812-23.419-30.853-47.452l-.006-3.511 6.729 10.151c3.7 5.584 7.283 10.591 7.961 11.128M50 290.234V337.5H24.85l.346-31.055c.381-34.197.571-35.759 5.492-45.049 3.664-6.916 14.799-17.629 19.117-18.393.107-.019.195 21.235.195 47.231m236.719-38.755c11.706 11.918 12.65 15.884 13.085 54.966l.346 31.055H275V242.937l3.32 1.686c1.826.928 5.606 4.013 8.399 6.856M50 362.5V375H25v-25h25v12.5m250 0V375h-25v-25h25v12.5"/></svg>