<svg xmlns="http://www.w3.org/2000/svg" viewBox="0 0 400 400"><path fill-rule="evenodd" d="M346.001 13.286c-1.839 1.075-.577-2.983-31.59 101.558-15.743 53.066-28.909 96.785-29.257 97.154-.349.368-5.239-1.126-10.869-3.32-47.738-18.603-99.222-23.649-143.308-14.047-51.968 11.32-94.631 35.66-114.625 65.395l-3.852 5.73.003 7.161c.031 71.181 76.323 116.918 190.808 114.391 74.375-1.641 117.161-51.133 122.084-141.214.486-8.884.836-10.191 31.303-116.797 31.235-109.292 32.034-112.44 29.24-115.234-1.726-1.726-37.135-2.414-39.937-.777m25.037 16.987c-.83 2.901-7.368 25.84-14.529 50.977-7.162 25.137-13.081 45.792-13.154 45.902-.337.504-16.402-5.906-16.402-6.546 0-.399 6.328-22.071 14.063-48.16l14.062-47.435 8.734-.005 8.734-.006-1.508 5.273m-39.847 106.929c5.032 1.807 7.872 3.234 7.872 3.955 0 1.095-3.81 14.984-4.384 15.981-.414.719-16.195-5.202-16.528-6.201-.287-.859 4.332-16.562 4.871-16.562.164 0 3.84 1.272 8.169 2.827m-8.402 30.463c4.224 1.552 7.68 3.22 7.68 3.707 0 .487-3.516 13.087-7.813 28-4.297 14.914-7.812 27.315-7.812 27.558 0 .314-14.684-7.088-16.981-8.56-.543-.348 15.821-53.526 16.472-53.526.425 0 4.23 1.269 8.454 2.821m-121.226 36.681c18.513 2.139 38.61 6.659 56.061 12.61l6.453 2.2-18.562.05c-45.087.12-90.434 11.597-127.546 32.28l-8.203 4.572-37.683 2.509c-20.726 1.38-38.08 2.377-38.565 2.215-1.697-.566 15.8-16.237 24.96-22.356 39.898-26.651 94.607-39.682 143.085-34.08m59.765 28.517c13.449 1.015 29.003 3.615 41.406 6.922l9.375 2.5-.511 9.27c-2.874 52.167-24.898 93.49-59.329 111.322-22.613 11.712-54.586 14.982-72.29 7.393-24.593-10.542-47.967-49.36-58.454-97.078-1.733-7.885-2.198-7.234 9.449-13.2 39.888-20.429 87.586-30.356 130.354-27.129m-122.265 37.45c-1.042 1.041-1.563 2.604-1.563 4.687 0 6.458-1.143 6.25 34.375 6.25s34.375.208 34.375-6.25 1.143-6.25-34.375-6.25c-30.208 0-31.302.052-32.812 1.563m93.75 0c-1.042 1.041-1.563 2.604-1.563 4.687 0 6.458-1.143 6.25 34.375 6.25S300 281.458 300 275s1.143-6.25-34.375-6.25c-30.208 0-31.302.052-32.812 1.563m-125.426.976c3.33 15.191 7.466 29.435 11.822 40.715 1.482 3.837 2.6 7.05 2.485 7.139-.115.089-14.448.929-31.85 1.866-17.403.938-34.839 1.916-38.747 2.174l-7.106.468-4.49-6.749c-8.553-12.854-17.404-41.74-12.854-41.953.598-.028 17.611-1.214 37.806-2.636 46.429-3.269 42.462-3.174 42.934-1.024m44.176 24.024C150.521 296.354 150 297.917 150 300c0 6.326-.344 6.25 28.125 6.25s28.125.076 28.125-6.25.344-6.25-28.125-6.25c-23.958 0-25.065.065-26.562 1.563m81.25 0c-1.042 1.041-1.563 2.604-1.563 4.687 0 6.326-.344 6.25 28.125 6.25s28.125.076 28.125-6.25.344-6.25-28.125-6.25c-23.958 0-25.065.065-26.562 1.563m-62.5 25c-1.042 1.041-1.563 2.604-1.563 4.687 0 5.978.816 6.25 18.75 6.25s18.75-.272 18.75-6.25-.816-6.25-18.75-6.25c-14.583 0-15.729.104-17.187 1.563m62.5 0c-1.042 1.041-1.563 2.604-1.563 4.687 0 5.978.816 6.25 18.75 6.25s18.75-.272 18.75-6.25-.816-6.25-18.75-6.25c-14.583 0-15.729.104-17.187 1.563m-102.443 16.61c5.251 9.712 12.893 20.357 19.797 27.578 8.272 8.653 8.76 8.336-8.363 5.435-31.197-5.285-56.884-14.631-76.629-27.881l-8.534-5.727 3.125-.263c2.329-.196 43.719-2.643 66.406-3.927 1.152-.065 2.255 1.193 4.198 4.785m46.193 8.39C175.521 346.354 175 347.917 175 350c0 5.777 1.181 6.25 15.625 6.25 14.444 0 15.625-.473 15.625-6.25s-1.181-6.25-15.625-6.25c-11.458 0-12.63.13-14.062 1.563m56.25 0c-1.042 1.041-1.563 2.604-1.563 4.687 0 5.777 1.181 6.25 15.625 6.25 14.444 0 15.625-.473 15.625-6.25s-1.181-6.25-15.625-6.25c-11.458 0-12.63.13-14.062 1.563"/></svg>