<svg xmlns="http://www.w3.org/2000/svg" viewBox="0 0 400 400"><path fill-rule="evenodd" d="M267.969 1.105c-49.38 8.711-85.985 46.175-93.803 96.006l-.956 6.095-5.16 4.7c-8.016 7.303-19.441 14.517-30.857 19.485-28.188 12.268-46.158 28.632-57.428 52.298-11.806 24.789-3.468 42.529 13.149 27.976 6.503-5.695 19.776-10.775 33.242-12.721l3.89-.562-6.245 6.52c-19.846 20.719-24.626 33.945-17.442 48.254 5.102 10.161 3.066 21.764-7.655 43.617-7.543 15.376-5.675 19.447 7.975 17.377 25.138-3.81 44.328-20.104 49.218-41.791 2.16-9.583 2.596-10.863 4.965-14.598 4.084-6.44 17.314-15.166 26.833-17.699 3.59-.955 3.636-1.5-.586 6.908-9.345 18.606-10.546 32.223-3.944 44.703 6.174 11.672 5.488 23.156-2.456 41.08-7.91 17.852 2.976 20.597 24.369 6.146 18.601-12.566 29.933-36.5 27.047-57.128-1.358-9.713.569-15.117 7.829-21.948 20.38-19.176 35.187-6.435 29.094 25.036-2.298 11.87-2.292 14.58.04 16.758 11.044 10.318 44.66-29.23 62.058-73.008 3.188-8.022 2.649-7.392 9.572-11.187 92.006-50.428 72.793-187.16-29.679-211.207-8.695-2.04-34.085-2.695-43.07-1.11m35.636 14.167c76.072 13.266 108.728 105.502 57.889 163.503-53.012 60.48-152.276 36.075-171.539-42.175-16.907-68.677 43.82-133.506 113.65-121.328m44.841 39.798c-1.268 1.349-2.03 3.425-2.489 6.781-1.406 10.279-9.707 17.813-19.65 17.832-3.1.006-6.776 3.823-6.776 7.036 0 12.198 24.238 7.328 34.441-6.919 5.931-8.283 8.108-20.916 4.267-24.757-2.663-2.663-7.279-2.65-9.793.027m7.662 39.099c-2.28 1.238-2.588 1.944-3.382 7.766-1.263 9.247-9.828 17.523-18.194 17.579-5.363.036-7.969 2.502-7.969 7.539 0 13.884 28.676 4.711 36.727-11.749 7.082-14.479 2.951-26.637-7.182-21.135m-54.361 7.589c-1.046 1.113-1.948 3.603-2.461 6.791-1.583 9.832-8.373 16.526-17.925 17.668-6.931.829-9.863 4.655-7.642 9.97 3.869 9.26 25.314 2.556 34.15-10.676 5.553-8.316 7.423-19.754 3.852-23.556-2.48-2.64-7.586-2.741-9.974-.197m-126.289 34.18c7.985 43.353 43.463 78.902 88.605 88.781 9.158 2.004 36.613 2.047 45.259.07 3.194-.73 5.949-1.185 6.122-1.011 2.049 2.048-18.514 36.811-28.22 47.706l-2.784 3.125-.046-6.64c-.244-35.094-27.948-47.112-53.571-23.24-11.431 10.65-13.081 14.93-13.175 34.177-.094 19.434-3.924 29.785-14.582 39.413-3.932 3.553-3.929 3.556-2.609-2.694 2.271-10.749.864-22.148-4.032-32.668-5.374-11.547-4.517-17.308 5.516-37.088 10.37-20.444 8.492-26.571-7.766-25.341-24.712 1.868-46.384 19.287-51.147 41.107-2.842 13.023-10.501 23.63-20.789 28.792-8.46 4.244-8.393 4.271-5.702-2.312 7.691-18.811 8.718-34.606 2.917-44.851-5.745-10.143 4.773-26.113 30.766-46.712 8.732-6.92 10.307-11.459 5.35-15.412-6.372-5.081-47.755.893-62.228 8.982l-3.407 1.905 1.949-4.412c9.085-20.554 25.98-36.285 50.014-46.567 10.914-4.67 18.784-9.01 26.071-14.378l5.078-3.741.594 3.184c.327 1.751 1.145 6.172 1.817 9.825m172.658 6.309c-1.347 1.602-2.034 3.362-2.057 5.274-.112 9.441-8.152 17.61-18.367 18.665-10.156 1.048-10.932 14.283-.837 14.283 17.691 0 33.301-15.253 33.301-32.54 0-7.785-7.351-11.254-12.04-5.682m-92.392 5.705c-1.997 1.68-2.479 2.773-2.912 6.6-1.103 9.751-7.9 16.725-17.641 18.102-13.372 1.89-12.027 14.69 1.461 13.909 14.594-.845 26.835-11.931 29.797-26.986 2.094-10.645-4.002-17.265-10.705-11.625m46.408 6.734c-1.484 1.168-2.123 2.597-2.532 5.664-1.512 11.345-9.62 19.338-19.617 19.338-3.989 0-6.901 2.966-6.901 7.031 0 14.191 28.278 5.754 36.658-10.938 7.383-14.704 2.275-28.868-7.608-21.095M41.59 275.215C4.112 312.727 4.694 312.026 7.159 316.653c1.411 2.65 3.121 3.608 6.487 3.635 3.052.024 3.621-.498 38.085-34.938l34.988-34.963v-3.652c0-4.457-2.457-6.891-6.953-6.891-2.698 0-4.551 1.717-38.176 35.371m-8.181 51.162L0 359.786v3.644c0 4.435 2.462 6.883 6.922 6.883 4.71 0 69.996-65.636 69.996-70.371 0-4.153-2.922-6.973-7.225-6.973-2.748 0-4.361 1.485-36.284 33.408m88.618 21.475c-19.06 19.013-34.988 35.412-35.396 36.44-1.741 4.396 2.047 9.458 7.077 9.458 3.598 0 72.337-67.984 73.157-72.353.92-4.903-1.986-8.116-7.338-8.116-2.708 0-4.518 1.669-37.5 34.571M99.609 324.11c-1.289.832-16.757 15.965-34.375 33.627l-32.031 32.114v3.581c0 4.524 2.159 6.568 6.935 6.568 5.044 0 70.018-64.959 70.018-70.002 0-5.665-5.843-8.927-10.547-5.888"/></svg>