<svg xmlns="http://www.w3.org/2000/svg" viewBox="0 0 400 400"><path fill-rule="evenodd" d="M345.908 13.477c-.696.537-28.185 44.921-61.087 98.632L225 209.766l-13.383 40.149c-14.759 44.278-14.858 44.487-22.554 48.062-3.454 1.604-4.653 1.639-68.098 2.023l-64.582.391-3.37 2.369c-3.696 2.598-22.747 28.244-26.098 35.131-8.086 16.623 2.519 26.469 41.1 38.161 44.705 13.547 124.863 15.642 183.098 4.787 36.176-6.744 42.585-11.353 42.62-30.652.029-16.445-1.205-17.819-25.848-28.775-21.213-9.431-25.024-12.848-25.062-22.475-.015-3.661 17.388-71.523 19.762-77.062.46-1.074 27.255-46.426 59.543-100.781 62.903-105.895 61.43-103.161 57.632-106.959-1.993-1.993-31.381-2.565-33.852-.658m17.131 12.109c-1.192 2.089-93.022 156.894-93.208 157.127-.3.378-10.456-2.366-10.456-2.825 0-.191 21.311-35.12 47.358-77.618L354.091 25h4.641c2.553 0 4.491.264 4.307.586M257.625 193.611l4.891 1.368-4.718 7.979c-2.595 4.389-4.899 7.98-5.121 7.98-2.586 0-10.502-2.747-10.198-3.539.793-2.067 9.204-15.21 9.717-15.184.296.015 2.739.643 5.429 1.396m-10.18 30.136c.236.236-3.501 15.175-8.304 33.199-11.437 42.916-11.679 44.916-6.683 55.258 4.49 9.292 8.676 12.211 32.386 22.585 15.786 6.907 16.015 7.13 16.015 15.598 0 8.225-.54 8.859-10.236 12.018-36.681 11.952-120.748 15.877-168.279 7.857-31.973-5.394-64.063-17.221-64.063-23.609 0-2.398 20.112-31.827 22.657-33.152.644-.336 30.175-.786 65.625-1.001l64.453-.391 4.326-2.126c12.096-5.946 13.195-7.987 27.713-51.469 6.657-19.937 12.257-36.659 12.444-37.16.322-.865 10.783 1.23 11.946 2.393"/></svg>